<svg width="364" height="365" viewBox="0 0 364 365" fill="none" xmlns="http://www.w3.org/2000/svg">
<path d="M10.28 353.94C39.67 314.53 73.41 278.56 107.94 243.68C142.79 209.13 178.76 175.38 218.2 146.02C188.84 185.45 155.09 221.42 120.54 256.28C85.66 290.8 49.7 324.55 10.28 353.94Z" fill="white"/>
<path d="M241.31 10.8301C189.97 -2.21993 133.26 11.3401 93.09 51.5101C40.56 104.04 33.52 184.84 72 244.94C73.97 243.71 75.93 242.55 77.88 241.44C82.29 239.02 86.72 236.73 91.53 234.99C89.31 239.59 86.6 243.77 83.76 247.93C82.18 250.16 80.51 252.4 78.75 254.65C67.82 268.61 53.58 282.63 38.22 293.95C27.72 301.7 16.7 308.2 5.86999 312.55C11.54 301.69 19.57 290.86 28.87 280.77C-16.46 210.42 -8.33002 115.61 53.25 54.0201C104.11 3.16008 177.62 -11.2399 241.3 10.8201L241.31 10.8301Z" fill="white"/>
<path d="M353.4 122.92C375.46 186.6 361.05 260.11 310.19 310.97C249.07 372.09 155.25 380.56 85.08 336.39C78.79 342.21 72.33 347.46 65.98 351.95C61.82 354.8 57.64 357.51 53.04 359.72C54.79 354.91 57.07 350.48 59.49 346.07C63.02 339.86 67.18 333.49 71.83 327.2C82.82 312.36 96.55 297.88 111.16 286.65C117.53 281.75 124.07 277.48 130.61 274.07C128.05 280.44 124.74 286.88 120.88 293.24C180.81 330.58 260.65 323.21 312.72 271.14C352.89 230.97 366.46 174.26 353.41 122.93L353.4 122.92Z" fill="white"/>
</svg>
