<svg width="49" height="48" viewBox="0 0 49 48" fill="none" xmlns="http://www.w3.org/2000/svg">
<path d="M24.2438 48.0078C11.0069 48.0078 0.244141 37.2449 0.244141 24.0078C0.244141 10.7708 11.0069 0.0078125 24.2438 0.0078125C37.4807 0.0078125 48.2435 10.7708 48.2435 24.0078C48.2435 37.2449 37.4807 48.0078 24.2438 48.0078ZM24.2438 1.4056C11.7897 1.4056 1.64191 11.5396 1.64191 24.0078C1.64191 36.4761 11.7757 46.61 24.2438 46.61C36.6979 46.61 46.8457 36.4761 46.8457 24.0078C46.8457 11.5396 36.6979 1.4056 24.2438 1.4056Z" fill="black"/>
<path d="M24.2437 48.0078C20.8471 48.0078 17.7021 45.4499 15.3818 40.7952C13.1314 36.2944 11.9014 30.3398 11.9014 24.0078C11.9014 17.6758 13.1454 11.7213 15.3818 7.22039C17.7021 2.56576 20.8471 0.0078125 24.2437 0.0078125C27.6402 0.0078125 30.7852 2.56576 33.1055 7.22039C35.3559 11.7213 36.586 17.6758 36.586 24.0078C36.586 30.3398 35.3419 36.2944 33.1055 40.7952C30.7852 45.4359 27.6402 48.0078 24.2437 48.0078ZM24.2437 1.4056C21.4062 1.4056 18.7085 3.69797 16.6258 7.8494C14.4733 12.1546 13.2852 17.8995 13.2852 24.0078C13.2852 30.1161 14.4733 35.8611 16.6258 40.1662C18.6945 44.3177 21.4062 46.61 24.2437 46.61C27.0811 46.61 29.7788 44.3177 31.8615 40.1662C34.0141 35.8611 35.2022 30.1161 35.2022 24.0078C35.2022 17.8995 34.0141 12.1546 31.8615 7.8494C29.7788 3.69797 27.0811 1.4056 24.2437 1.4056Z" fill="black"/>
<path d="M24.2438 48.0078C11.0069 48.0078 0.244141 37.2449 0.244141 24.0078C0.244141 10.7708 11.0069 0.0078125 24.2438 0.0078125C37.4807 0.0078125 48.2435 10.7708 48.2435 24.0078C48.2435 37.2449 37.4807 48.0078 24.2438 48.0078ZM24.2438 1.4056C11.7897 1.4056 1.64191 11.5396 1.64191 24.0078C1.64191 36.4761 11.7757 46.61 24.2438 46.61C36.6979 46.61 46.8457 36.4761 46.8457 24.0078C46.8457 11.5396 36.6979 1.4056 24.2438 1.4056Z" fill="black"/>
<path d="M24.2438 36.35C17.9119 36.35 11.9574 35.1059 7.45662 32.8695C2.80205 30.5491 0.244141 27.4041 0.244141 24.0075C0.244141 20.6109 2.80205 17.4659 7.45662 15.1455C11.9574 12.8951 17.9119 11.665 24.2438 11.665C30.5757 11.665 36.5302 12.9091 41.031 15.1455C45.6856 17.4659 48.2435 20.6109 48.2435 24.0075C48.2435 27.4041 45.6856 30.5491 41.031 32.8695C36.5302 35.1199 30.5757 36.35 24.2438 36.35ZM24.2438 13.0628C18.1216 13.0628 12.3907 14.2509 8.08561 16.4035C3.93424 18.4723 1.64191 21.184 1.64191 24.0215C1.64191 26.859 3.93424 29.5567 8.08561 31.6394C12.3907 33.792 18.1356 34.9801 24.2438 34.9801C30.366 34.9801 36.0969 33.792 40.402 31.6394C44.5534 29.5707 46.8457 26.859 46.8457 24.0215C46.8457 21.184 44.5534 18.4862 40.402 16.4035C36.0969 14.237 30.366 13.0628 24.2438 13.0628Z" fill="black"/>
<path d="M24.2448 48.0078C23.8534 48.0078 23.5459 47.7003 23.5459 47.3089V0.706706C23.5459 0.315326 23.8534 0.0078125 24.2448 0.0078125C24.6362 0.0078125 24.9437 0.315326 24.9437 0.706706V47.295C24.9437 47.6863 24.6362 48.0078 24.2448 48.0078Z" fill="black"/>
<path d="M47.5453 24.7069H0.957673C0.566298 24.7069 0.258789 24.3994 0.258789 24.008C0.258789 23.6166 0.566298 23.3091 0.957673 23.3091H47.5453C47.9366 23.3091 48.2441 23.6166 48.2441 24.008C48.2441 24.3994 47.9227 24.7069 47.5453 24.7069Z" fill="black"/>
</svg>
