<svg width="49" height="48" viewBox="0 0 49 48" fill="none" xmlns="http://www.w3.org/2000/svg">
<path d="M24.2441 48.0079C11.0071 48.0079 0.244141 37.2449 0.244141 24.0078C0.244141 10.7708 11.0071 0.0078125 24.2441 0.0078125C37.4812 0.0078125 48.2441 10.7708 48.2441 24.0078C48.2441 37.2449 37.4812 48.0079 24.2441 48.0079ZM24.2441 1.4056C11.7899 1.4056 1.64193 11.5396 1.64193 24.0078C1.64193 36.4761 11.7759 46.6101 24.2441 46.6101C36.7124 46.6101 46.8464 36.4761 46.8464 24.0078C46.8464 11.5396 36.6984 1.4056 24.2441 1.4056Z" fill="black"/>
<path d="M24.2438 48.0079C20.8472 48.0079 17.7022 45.4499 15.3819 40.7953C13.1314 36.2944 11.9014 30.3398 11.9014 24.0078C11.9014 17.6759 13.1454 11.7213 15.3819 7.22041C17.7022 2.56578 20.8472 0.0078125 24.2438 0.0078125C27.6404 0.0078125 30.7855 2.56578 33.1058 7.22041C35.3562 11.7213 36.5863 17.6759 36.5863 24.0078C36.5863 30.3398 35.3423 36.2944 33.1058 40.7953C30.7855 45.4359 27.6404 48.0079 24.2438 48.0079ZM24.2438 1.4056C21.4063 1.4056 18.7086 3.69798 16.6259 7.84941C14.4733 12.1546 13.2852 17.8995 13.2852 24.0078C13.2852 30.1162 14.4733 35.8611 16.6259 40.1663C18.6946 44.3177 21.4063 46.6101 24.2438 46.6101C27.0813 46.6101 29.7791 44.3177 31.8618 40.1663C34.0144 35.8611 35.2025 30.1162 35.2025 24.0078C35.2025 17.8995 34.0144 12.1546 31.8618 7.84941C29.7791 3.69798 27.0813 1.4056 24.2438 1.4056Z" fill="black"/>
<path d="M24.2458 48.0078C23.8544 48.0078 23.5469 47.7003 23.5469 47.3089V0.720622C23.5469 0.329242 23.8544 0.0217285 24.2458 0.0217285C24.6371 0.0217285 24.9447 0.329242 24.9447 0.720622V47.3089C24.9447 47.6863 24.6371 48.0078 24.2458 48.0078Z" fill="black"/>
<path d="M24.2441 48.0079C11.0071 48.0079 0.244141 37.2449 0.244141 24.0078C0.244141 10.7708 11.0071 0.0078125 24.2441 0.0078125C37.4812 0.0078125 48.2441 10.7708 48.2441 24.0078C48.2441 37.2449 37.4812 48.0079 24.2441 48.0079ZM24.2441 1.4056C11.7899 1.4056 1.64193 11.5396 1.64193 24.0078C1.64193 36.4761 11.7759 46.6101 24.2441 46.6101C36.7124 46.6101 46.8464 36.4761 46.8464 24.0078C46.8464 11.5396 36.6984 1.4056 24.2441 1.4056Z" fill="black"/>
<path d="M47.5452 24.7069H0.943034C0.551654 24.7069 0.244141 24.3994 0.244141 24.008C0.244141 23.6166 0.551654 23.3091 0.943034 23.3091H47.5313C47.9226 23.3091 48.2302 23.6166 48.2302 24.008C48.2302 24.3994 47.9226 24.7069 47.5452 24.7069Z" fill="black"/>
<path d="M44.4283 13.0636H4.06022C3.66884 13.0636 3.36133 12.756 3.36133 12.3647C3.36133 11.9733 3.66884 11.6658 4.06022 11.6658H44.4143C44.8057 11.6658 45.1132 11.9733 45.1132 12.3647C45.1132 12.756 44.8057 13.0636 44.4283 13.0636Z" fill="black"/>
<path d="M44.4283 36.3502H4.06022C3.66884 36.3502 3.36133 36.0427 3.36133 35.6513C3.36133 35.2599 3.66884 34.9524 4.06022 34.9524H44.4143C44.8057 34.9524 45.1132 35.2599 45.1132 35.6513C45.1132 36.0427 44.8057 36.3502 44.4283 36.3502Z" fill="black"/>
</svg>
