<svg width="49" height="48" viewBox="0 0 49 48" fill="none" xmlns="http://www.w3.org/2000/svg">
<path d="M1.64199 16.2366H0.244141V0.0078125H16.4732V1.40564H1.64199V16.2366Z" fill="black"/>
<path d="M1.43178 0.207397L0.443359 1.1958L15.9714 16.7236L16.9599 15.7352L1.43178 0.207397Z" fill="black"/>
<path d="M16.4732 48.0077H0.244141V31.7788H1.64199V46.6098H16.4732V48.0077Z" fill="black"/>
<path d="M16.0449 31.3101L0.516602 46.8398L1.50518 47.8282L17.0335 32.2985L16.0449 31.3101Z" fill="black"/>
<path d="M48.2447 48.0069H32.0156V46.6091H46.8468V31.7781H48.2447V48.0069Z" fill="black"/>
<path d="M32.4914 31.2624L31.5029 32.2507L47.0317 47.7778L48.0202 46.7894L32.4914 31.2624Z" fill="black"/>
<path d="M48.2447 16.2366H46.8468V1.40564H32.0156V0.0078125H48.2447V16.2366Z" fill="black"/>
<path d="M47.1035 0.263441L31.5732 15.7913L32.5617 16.7798L48.0919 1.25198L47.1035 0.263441Z" fill="black"/>
</svg>
