<svg width="49" height="48" viewBox="0 0 49 48" fill="none" xmlns="http://www.w3.org/2000/svg">
<path d="M45.9926 35.2436L13.5146 2.76605L14.4094 2.34663C23.567 -2.02939 34.5421 -0.141954 41.7283 7.04422C48.9146 14.2304 50.788 25.2054 46.426 34.3628L45.9926 35.2436ZM15.9194 3.19948L45.5731 32.8529C49.1523 24.4224 47.2788 14.5659 40.7497 8.0368C34.2066 1.49375 24.3499 -0.393609 15.9194 3.19948Z" fill="black"/>
<path d="M24.7841 48.008C18.5486 48.008 12.383 45.5753 7.78321 40.9756C0.596966 33.7894 -1.27649 22.8144 3.08559 13.657L3.50502 12.7622L35.9829 45.2397L35.0881 45.6592C31.8166 47.239 28.2794 48.008 24.7841 48.008ZM3.95241 15.1669C0.373269 23.5973 2.24673 33.4539 8.77586 39.9829C13.11 44.317 18.9121 46.5959 24.7841 46.5959C27.7621 46.5959 30.754 46.0087 33.5922 44.8063L3.95241 15.1669Z" fill="black"/>
<path d="M8.76399 7.02313L7.77539 8.01172L40.7254 40.9614L41.714 39.9728L8.76399 7.02313Z" fill="black"/>
</svg>
